<?xml version="1.0" encoding="UTF-8" standalone="no"?>
<!DOCTYPE svg PUBLIC "-//W3C//DTD SVG 1.1//EN" "http://www.w3.org/Graphics/SVG/1.1/DTD/svg11.dtd">
<svg width="100%" height="100%" viewBox="0 0 2047 1779" version="1.1" xmlns="http://www.w3.org/2000/svg" xmlns:xlink="http://www.w3.org/1999/xlink" xml:space="preserve" xmlns:serif="http://www.serif.com/" style="fill-rule:evenodd;clip-rule:evenodd;stroke-linecap:round;stroke-linejoin:round;stroke-miterlimit:1.5;">
    <g transform="matrix(1,0,0,1,-1591.133192,-880.186522)">
        <path d="M1648.814,2311.091C1669.593,2305.972 1705.152,2324.632 1733.737,2329.16C1764.153,2333.978 1798.597,2340.893 1831.308,2340.001C1864.434,2339.098 1905.39,2334.882 1932.493,2323.739C1957.029,2313.652 1974.477,2291.187 1993.927,2273.147C2014.706,2253.874 2040.002,2232.794 2057.167,2208.1C2074.333,2183.406 2088.714,2154.578 2096.919,2124.983C2105.351,2094.568 2108.061,2053.01 2107.76,2025.606C2107.517,2003.518 2109.567,1974.411 2095.112,1960.558C2080.657,1946.705 2045.802,1948.184 2021.03,1942.489C1994.83,1936.467 1964.309,1934.772 1937.914,1924.421C1907.197,1912.375 1861.423,1887.681 1836.729,1870.215C1817.94,1856.925 1804.858,1836.983 1789.75,1819.622C1772.886,1800.243 1745.434,1780.546 1735.544,1753.937C1722.896,1719.908 1714.139,1662.171 1713.862,1615.446C1713.561,1564.658 1715.835,1502.069 1733.737,1449.213C1752.709,1393.2 1792.762,1328.454 1827.695,1279.367C1860.56,1233.186 1903.884,1190.53 1943.334,1154.693C1980.604,1120.837 2022.5,1092.28 2064.395,1064.35C2108.663,1034.837 2160.159,1002.916 2208.945,977.62C2256.828,952.791 2305.016,926.563 2357.108,912.572C2409.809,898.419 2468.745,892.402 2525.147,892.697C2582.666,892.998 2644.669,899.416 2702.221,914.379C2762.45,930.039 2835.327,958.949 2886.522,986.654C2931.866,1011.193 2972.649,1047.184 3009.389,1080.612C3045.02,1113.03 3076.65,1149.776 3106.96,1187.217C3137.677,1225.161 3169.297,1266.117 3193.69,1308.277C3217.853,1350.042 3239.631,1402.46 3253.317,1440.179C3264.351,1470.591 3272.505,1502.41 3275.806,1534.593C3279.419,1569.827 3277.844,1620.039 3274.999,1651.583C3272.781,1676.177 3268.936,1701.368 3258.737,1723.858C3246.993,1749.756 3226.332,1782.099 3204.531,1806.974C3181.042,1833.776 3147.313,1866.601 3117.801,1884.669C3090.674,1901.278 3052.151,1903.642 3027.458,1915.386C3006.336,1925.432 2981.081,1941.887 2969.638,1955.138C2960.661,1965.532 2956.005,1981.441 2958.796,1994.889C2962.109,2010.849 2978.371,2033.134 2989.513,2050.902C3000.524,2068.459 3014.293,2084.159 3025.651,2101.494C3037.094,2118.961 3046.83,2137.943 3058.174,2155.7C3072.027,2177.383 3093.107,2212.316 3108.767,2231.589C3121.132,2246.808 3134.969,2261.855 3152.132,2271.34C3175.019,2283.988 3218.685,2301.154 3246.089,2307.478C3268.984,2312.761 3293.971,2313.199 3316.557,2309.284C3339.143,2305.37 3361.116,2292.488 3381.604,2283.988C3401.104,2275.898 3426.63,2270.922 3439.486,2258.284C3452.249,2245.737 3457.907,2226.039 3458.739,2208.161C3459.632,2188.956 3442.721,2165.142 3444.845,2143.052C3447.047,2120.155 3460.006,2087.611 3471.948,2070.777C3482.172,2056.366 3499.934,2046.267 3516.497,2042.051C3533.06,2037.835 3556.466,2038.585 3571.326,2045.481C3586.186,2052.377 3598.129,2068.12 3605.656,2083.425C3614.691,2101.795 3626.226,2130.724 3625.532,2155.7C3624.629,2188.224 3615.594,2244.538 3600.236,2278.568C3585.802,2310.549 3560.041,2337.063 3533.382,2359.877C3502.063,2386.679 3452.976,2420.106 3412.321,2439.379C3373.746,2457.667 3331.118,2475.038 3289.454,2475.517C3247.79,2475.996 3195.767,2456.708 3162.34,2442.253C3134.545,2430.233 3112.333,2407.957 3088.891,2388.787C3064.002,2368.432 3034.685,2340.001 3013.003,2320.126C2994.783,2303.425 2974.456,2272.846 2958.796,2269.533C2943.137,2266.221 2922.358,2286.096 2919.045,2300.25C2915.733,2314.404 2929.904,2337.454 2938.921,2354.456C2949.461,2374.332 2969.035,2402.338 2982.286,2419.504C2992.959,2433.33 3005.578,2445.613 3018.423,2457.448C3034.25,2472.03 3060.379,2488.925 3077.243,2506.994C3093.739,2524.667 3112.848,2546.412 3119.608,2565.86C3125.939,2584.074 3125.932,2610.43 3117.801,2623.68C3109.67,2636.931 3087.961,2643.428 3070.822,2645.363C3052.152,2647.471 3026.157,2644.316 3005.775,2636.328C2983.49,2627.595 2960.446,2606.688 2937.114,2592.963C2906.397,2574.895 2853.482,2549.539 2821.474,2527.916C2793.821,2509.234 2766.72,2488.616 2745.068,2463.221C2720.676,2434.613 2695.039,2387.34 2675.117,2356.263C2658.262,2329.97 2645.111,2292.119 2625.536,2276.761C2607.432,2262.556 2574.101,2261.402 2557.671,2264.113C2543.798,2266.401 2534.14,2280.937 2526.954,2293.023C2514.061,2314.705 2488.088,2367.405 2480.315,2394.207C2474.779,2413.296 2480.315,2433.959 2480.315,2453.834C2480.315,2477.926 2487.298,2515.87 2480.315,2538.757C2473.789,2560.147 2453.832,2575.196 2438.417,2591.156C2423.002,2607.117 2409.234,2628.606 2387.825,2634.521C2364.938,2640.845 2322.175,2636.027 2301.095,2629.101C2284.082,2623.511 2266.163,2610.21 2261.344,2592.963C2255.622,2572.485 2258.031,2529.723 2266.765,2506.233C2275.097,2483.822 2300.493,2471.602 2313.743,2452.027C2326.994,2432.453 2337.232,2407.157 2346.267,2388.787C2353.878,2373.31 2362.529,2355.058 2367.949,2341.808C2372.276,2331.231 2378.542,2320.709 2378.791,2309.284C2379.092,2295.432 2380.559,2271.988 2369.756,2258.692C2358.011,2244.237 2325.187,2222.856 2308.322,2222.555C2291.458,2222.253 2278.386,2242.387 2268.571,2256.885C2255.321,2276.46 2242.673,2317.717 2228.82,2340.001C2217.094,2358.865 2202.171,2375.967 2185.455,2390.594C2163.773,2409.566 2129.813,2436.123 2098.725,2453.834C2066.75,2472.052 2030.459,2489.647 1993.6,2499.899C1951.465,2511.618 1889.528,2522.491 1845.917,2524.149C1807.651,2525.604 1763.576,2518.555 1731.93,2509.847C1704.662,2502.344 1676.52,2486.659 1656.042,2471.903C1637.371,2458.449 1616.893,2439.982 1609.063,2421.311C1601.233,2402.64 1602.438,2378.247 1609.063,2359.877C1615.688,2341.507 1628.447,2316.109 1648.814,2311.091Z" style="fill:rgb(255,205,63);stroke:black;stroke-width:25px;"/>
        <g transform="matrix(1.23938,0,0,1.23938,-586.018533,-266.160715)">
            <g transform="matrix(0.831261,0,0,0.71339,16.414105,376.999752)">
                <path d="M2579.88,1652.941C2576.109,1627.124 2572.707,1591.688 2578.435,1561.874C2584.221,1531.76 2600.865,1492.249 2614.598,1472.253C2625.034,1457.057 2644.636,1450.711 2660.828,1441.898C2677.206,1432.984 2694.622,1424.012 2712.866,1418.77C2733.826,1412.747 2763.218,1405.52 2786.587,1405.761C2809.267,1405.994 2853.079,1420.216 2853.079,1420.216C2853.079,1420.216 2910.417,1453.703 2925.354,1478.035C2940.291,1502.368 2942.459,1537.06 2942.7,1566.211C2942.941,1595.362 2938.123,1627.885 2926.8,1652.941C2915.519,1677.902 2895.176,1698.277 2874.762,1716.542C2853.079,1735.943 2822.965,1760.543 2796.705,1769.343C2771.578,1777.763 2742.499,1771.911 2717.203,1769.343C2692.696,1766.855 2664.284,1762.699 2644.928,1753.937C2627.47,1746.035 2611.442,1732.885 2601.066,1716.774C2590.224,1699.941 2583.121,1675.124 2579.88,1652.941Z" style="fill:white;stroke:black;stroke-width:26.04px;"/>
            </g>
            <g transform="matrix(0.831261,0,0,0.71339,16.414105,376.999752)">
                <path d="M2677.295,1676.809C2669.031,1668.668 2659.676,1657.813 2657.313,1645.725C2654.476,1631.213 2657.436,1603.678 2660.273,1589.739C2662.335,1579.608 2669.163,1571.046 2674.335,1562.094C2680.132,1552.059 2684.736,1537.211 2695.058,1529.53C2705.666,1521.635 2723.01,1516.937 2737.983,1514.728C2753.032,1512.508 2770.387,1511.142 2785.349,1516.208C2801.015,1521.512 2821.984,1532.49 2831.975,1546.552C2841.966,1560.614 2843.447,1583.187 2845.297,1600.579C2847.073,1617.276 2848.627,1635.857 2843.077,1650.905C2837.526,1665.954 2825.903,1681.314 2811.993,1690.87C2797.987,1700.492 2776.559,1708.016 2759.044,1708.633C2741.528,1709.249 2720.524,1699.875 2706.899,1694.571C2696.175,1690.396 2685.494,1684.885 2677.295,1676.809Z" style="stroke:black;stroke-width:26.04px;"/>
            </g>
        </g>
        <g transform="matrix(1.23938,0,0,1.23938,-41.150415,-266.160715)">
            <g transform="matrix(0.831261,0,0,0.71339,16.414105,376.999752)">
                <path d="M2579.88,1652.941C2576.109,1627.124 2572.707,1591.688 2578.435,1561.874C2584.221,1531.76 2600.865,1492.249 2614.598,1472.253C2625.034,1457.057 2644.636,1450.711 2660.828,1441.898C2677.206,1432.984 2694.622,1424.012 2712.866,1418.77C2733.826,1412.747 2763.218,1405.52 2786.587,1405.761C2809.267,1405.994 2832.963,1409.738 2853.079,1420.216C2876.207,1432.261 2925.354,1478.035 2925.354,1478.035C2925.354,1478.035 2942.459,1537.06 2942.7,1566.211C2942.941,1595.362 2938.123,1627.885 2926.8,1652.941C2915.519,1677.902 2895.176,1698.277 2874.762,1716.542C2853.079,1735.943 2822.965,1760.543 2796.705,1769.343C2771.578,1777.763 2742.499,1771.911 2717.203,1769.343C2692.696,1766.855 2664.284,1762.699 2644.928,1753.937C2627.47,1746.035 2611.442,1732.885 2601.066,1716.774C2590.224,1699.941 2583.121,1675.124 2579.88,1652.941Z" style="fill:white;stroke:black;stroke-width:26.04px;"/>
            </g>
            <g transform="matrix(0.831261,0,0,0.71339,16.414105,376.999752)">
                <path d="M2677.295,1676.809C2669.031,1668.668 2659.676,1657.813 2657.313,1645.725C2654.476,1631.213 2657.436,1603.678 2660.273,1589.739C2662.335,1579.608 2669.163,1571.046 2674.335,1562.094C2680.132,1552.059 2684.736,1537.211 2695.058,1529.53C2705.666,1521.635 2723.01,1516.937 2737.983,1514.728C2753.032,1512.508 2785.349,1516.208 2785.349,1516.208C2785.349,1516.208 2821.984,1532.49 2831.975,1546.552C2841.966,1560.614 2843.447,1583.187 2845.297,1600.579C2847.073,1617.276 2848.627,1635.857 2843.077,1650.905C2837.526,1665.954 2825.903,1681.314 2811.993,1690.87C2797.987,1700.492 2776.559,1708.016 2759.044,1708.633C2741.528,1709.249 2720.524,1699.875 2706.899,1694.571C2696.175,1690.396 2685.494,1684.885 2677.295,1676.809Z" style="stroke:black;stroke-width:26.04px;"/>
            </g>
        </g>
    </g>
</svg>
